<?xml version="1.0" encoding="UTF-8"?>
<svg xmlns="http://www.w3.org/2000/svg" viewBox="0 0 400 80">
  <!-- ForgeKit Full Wordmark v2 - with proper flame -->
  
  <!-- Logo mark - scaled down -->
  <g transform="translate(5, 5) scale(0.38)">
    <!-- Braces -->
    <path d="M55 30 Q32 30 32 65 L32 90 Q32 100 18 100 Q32 100 32 110 L32 135 Q32 170 55 170" 
          fill="none" stroke="#0f172a" stroke-width="11" stroke-linecap="round"/>
    <path d="M145 30 Q168 30 168 65 L168 90 Q168 100 182 100 Q168 100 168 110 L168 135 Q168 170 145 170" 
          fill="none" stroke="#0f172a" stroke-width="11" stroke-linecap="round"/>
    
    <!-- Flame layers -->
    <path d="M100 55 Q108 70 115 85 Q125 105 120 120 Q118 135 100 145 Q82 135 80 120 Q75 105 85 85 Q92 70 100 55Z" fill="#ea580c"/>
    <path d="M100 72 Q106 82 110 92 Q116 105 112 115 Q110 125 100 132 Q90 125 88 115 Q84 105 90 92 Q94 82 100 72Z" fill="#f97316"/>
    <path d="M100 88 Q104 95 106 102 Q108 112 105 118 Q103 123 100 125 Q97 123 95 118 Q92 112 94 102 Q96 95 100 88Z" fill="#fbbf24"/>
  </g>
  
  <!-- Wordmark text -->
  <text x="95" y="54" font-family="system-ui, -apple-system, sans-serif" font-size="40" font-weight="700" fill="#0f172a">
    <tspan>Forge</tspan><tspan fill="#f97316">Kit</tspan>
  </text>
  
</svg>
